<svg xmlns="http://www.w3.org/2000/svg" viewBox="0 0 160 200" fill="none">
  <defs>
    <linearGradient id="primary" x1="0" y1="0" x2="1" y2="1">
      <stop offset="0%" stop-color="#0948b3"/>
      <stop offset="100%" stop-color="#7100b9"/>
    </linearGradient>
  </defs>
  <polygon points="80,10 120,10 140,60 120,110 80,110 60,60" fill="url(#primary)"/>
  <polygon points="80,15 115,15 133,60 115,105 80,105 62,60" fill="none" stroke="#00d4ff" stroke-width="1.5" opacity="0.5"/>
  <g transform="translate(100, 60)">
    <path d="M-20,15 L-25,-10 L-10,0 L0,-15 L10,0 L25,-10 L20,15 Z" fill="white"/>
    <circle cx="-15" cy="-5" r="2.5" fill="#00d4ff"/>
    <circle cx="0" cy="-10" r="2.5" fill="#00d4ff"/>
    <circle cx="15" cy="-5" r="2.5" fill="#00d4ff"/>
  </g>
  <text x="80" y="145" font-family="'Segoe UI', Arial, sans-serif" font-size="28" font-weight="800" fill="url(#primary)" letter-spacing="1" text-anchor="middle">ROYAL</text>
  <text x="80" y="172" font-family="'Segoe UI', Arial, sans-serif" font-size="28" font-weight="800" fill="url(#primary)" letter-spacing="1" text-anchor="middle">DEVLOPMENTS</text>
  <circle cx="80" cy="185" r="2" fill="#00d4ff"/>
  <text x="80" y="198" font-family="'Segoe UI', Arial, sans-serif" font-size="10" fill="#666" letter-spacing="3" text-anchor="middle">TECH SOLUTIONS</text>
</svg>
